# xmcd CD database file
#
# Track frame offsets:
#	150
#	18650
#	32270
#	47447
#	60102
#	73355
#	89287
#	103482
#	117810
#	130732
#	145035
#	160525
#
# Disc length: 2310 seconds
#
# Revision: 3
# Processed by: cddbd v1.5.2PL0 Copyright (c) Steve Scherf et al.
# Submitted via: CDex 1.51
#
DISCID=9509040c
DTITLE=Musica Ecuatoriana - Voces Femininas del Ecuador
DYEAR=1995
DGENRE=Folk
TTITLE0=Arias Intimas - Melida Jaramillo
TTITLE1=Imploracion De Amor - Maxima Mejia
TTITLE2=Responde Corazon - Lida Uquillas
TTITLE3=Paloma Del Ensue O - Hilda Murillo
TTITLE4=Profunda Herida - Lilliam Suarez
TTITLE5=Rosas - Angelina
TTITLE6=La Ingratitud - Melida Jaramillo
TTITLE7=Ventanita - Maxima Mejia
TTITLE8=Vi Edos - Lida Huquillas
TTITLE9=Despedida - Hilda Murillo
TTITLE10=Recuerdos De Ayer - Lilliam Suarez
TTITLE11=Rosales Mustios - Angelina
EXTD=YEAR: 1995
EXTT0=
EXTT1=
EXTT2=
EXTT3=
EXTT4=
EXTT5=
EXTT6=
EXTT7=
EXTT8=
EXTT9=
EXTT10=
EXTT11=
PLAYORDER=
